<svg width="1000" height="1000" viewBox="0 0 1000 1000" fill="none" xmlns="http://www.w3.org/2000/svg">
<path d="M594.239 983C548.269 983 507.697 977.551 472.174 967C377.677 938.081 359.166 836.116 359.166 750.35V223.327C359.166 139.612 384.201 55.7165 473.568 31.8265C510.135 21.2755 550.881 16 595.806 16C641.776 16 682 21.2755 716.477 31.8265C750.955 42.3775 778.119 62.4244 797.97 91.9673C817.82 121.51 827.746 165.297 827.746 223.327L828.78 264.826L914 329.961H827.746H729.015V221.745C729.015 180.596 723.269 149.998 711.776 129.951C700.284 108.849 684.09 95.1325 663.194 88.802C643.344 82.4714 620.358 79.3061 594.239 79.3061C568.12 79.3061 544.613 82.4714 523.717 88.802C503.866 95.1325 488.195 108.849 476.702 129.951C466.255 149.998 461.031 180.596 461.031 221.745V777.255C461.031 819.459 466.255 851.112 476.702 872.214C488.195 892.261 503.866 905.45 523.717 911.781C544.613 918.111 568.12 921.277 594.239 921.277C621.403 921.277 644.911 918.111 664.761 911.781C684.612 905.45 700.284 892.261 711.776 872.214C723.269 851.112 729.015 819.459 729.015 777.255V640.475H827.746V748.768C827.746 817.349 817.82 868.521 797.97 902.285C778.119 934.993 750.955 956.622 716.477 967.173C682 977.724 641.254 983 594.239 983Z" fill="black"/>
<path d="M415.172 983C365.483 983 322.42 974.39 285.982 957.17C250.648 939.95 223.044 911.43 203.169 871.609C183.293 830.712 173.356 774.21 173.356 702.102L85 642.493H173.356C191.023 642.493 208.69 642.493 226.356 642.493C245.128 642.493 262.794 642.493 279.357 642.493V708.559C279.357 762.371 284.878 804.344 295.92 834.479C308.066 863.538 324.077 883.986 343.952 895.825C397.941 926.29 474.925 918.301 519.517 874.838C547.121 847.932 560.924 800.578 560.924 732.775C560.924 684.344 553.747 648.29 539.392 624.613C525.038 599.859 502.954 580.487 473.141 566.496C443.328 551.428 406.89 535.285 363.827 518.065C328.493 504.074 296.472 487.392 267.763 468.02C240.159 447.571 218.627 421.204 203.169 388.916C187.71 356.629 179.981 315.732 179.981 266.225C179.981 210.261 187.71 163.983 203.169 127.391C218.627 89.7223 244.023 61.7401 279.357 43.444C314.691 25.148 361.619 16 420.14 16C496.329 16 554.851 34.8342 595.706 72.5024C637.664 109.095 658.644 161.292 658.644 229.095V329.961C642.081 329.961 624.966 329.961 607.299 329.961C590.737 329.961 573.622 329.961 555.955 329.961V253.31C555.955 201.651 544.361 162.906 521.173 137.077C499.09 110.171 465.964 96.7178 421.797 96.7178C373.213 96.7178 337.879 110.709 315.795 138.691C294.816 165.597 284.326 207.032 284.326 262.997C284.326 304.97 292.607 338.333 309.17 363.087C325.733 386.764 347.264 405.598 373.765 419.589C400.265 432.504 428.422 444.343 458.235 455.105C507.923 473.401 548.226 492.774 579.143 513.222C610.06 532.594 632.696 557.886 647.05 589.097C661.404 620.308 668.582 663.895 668.582 719.86C668.582 785.51 657.54 837.708 635.456 876.452C614.477 914.121 584.664 941.565 546.017 958.785C508.475 974.928 464.86 983 415.172 983Z" fill="black"/>
<path d="M415.172 983C365.483 983 322.42 974.39 285.982 957.17C250.648 939.95 223.044 911.43 203.169 871.609C183.293 830.712 173.356 774.21 173.356 702.102L85 642.493H173.356C191.023 642.493 208.69 642.493 226.356 642.493C245.128 642.493 262.794 642.493 279.357 642.493V708.559C279.357 762.371 284.878 804.344 295.92 834.479C308.066 863.538 324.077 883.986 343.952 895.825C397.941 926.29 474.925 918.301 519.517 874.838C547.121 847.932 560.924 800.578 560.924 732.775C560.924 684.344 553.747 648.29 539.392 624.613C525.038 599.859 502.954 580.487 473.141 566.496C443.328 551.428 406.89 535.285 363.827 518.065C328.493 504.074 296.472 487.392 267.763 468.02C240.159 447.571 218.627 421.204 203.169 388.916C187.71 356.629 179.981 315.732 179.981 266.225C179.981 210.261 187.71 163.983 203.169 127.391C218.627 89.7223 244.023 61.7401 279.357 43.444C314.691 25.148 361.619 16 420.14 16C496.329 16 554.851 34.8342 595.706 72.5024C637.664 109.095 658.644 161.292 658.644 229.095V329.961C642.081 329.961 624.966 329.961 607.299 329.961C590.737 329.961 573.622 329.961 555.955 329.961V253.31C555.955 201.651 544.361 162.906 521.173 137.077C499.09 110.171 465.964 96.7178 421.797 96.7178C373.213 96.7178 337.879 110.709 315.795 138.691C294.816 165.597 284.326 207.032 284.326 262.997C284.326 304.97 292.607 338.333 309.17 363.087C325.733 386.764 347.264 405.598 373.765 419.589C400.265 432.504 428.422 444.343 458.235 455.105C507.923 473.401 548.226 492.774 579.143 513.222C610.06 532.594 632.696 557.886 647.05 589.097C661.404 620.308 668.582 663.895 668.582 719.86C668.582 785.51 657.54 837.708 635.456 876.452C614.477 914.121 584.664 941.565 546.017 958.785C508.475 974.928 464.86 983 415.172 983Z" fill="#D62828"/>
</svg>
