<svg xmlns="http://www.w3.org/2000/svg"  viewBox="0 0 64 64" width="64px" height="64px"><g fill="#dddddd"><path d="M34,19a1,1,0,0,1,1-1A11.01245,11.01245,0,0,1,46,29a1,1,0,0,1-2,0,9.01047,9.01047,0,0,0-9-9A1,1,0,0,1,34,19ZM35,8A21.02359,21.02359,0,0,1,56,29a1,1,0,0,0,2,0A23.02619,23.02619,0,0,0,35,6a1,1,0,0,0,0,2Zm0,6A15.017,15.017,0,0,1,50,29a1,1,0,0,0,2,0A17.019,17.019,0,0,0,35,12a1,1,0,0,0,0,2Zm0,12a3.00328,3.00328,0,0,1,3,3,1,1,0,0,0,2,0,5.00588,5.00588,0,0,0-5-5,1,1,0,0,0,0,2ZM59.75391,49.24609,51.168,40.66016a3.00243,3.00243,0,0,0-4.24219,0L45.1026,42.48334,58.39435,56.01971l1.35956-1.35955a3.887,3.887,0,0,0,1.29052-2.61524A3.7928,3.7928,0,0,0,59.75391,49.24609ZM23.33984,17.07422a3.00243,3.00243,0,0,0,0-4.24219L14.75391,4.24609a3.48443,3.48443,0,0,0-5.41407,0L8.11591,5.47,21.40765,19.00641ZM42.293,45.293c-.71387.71387-1.87158,1.502-3.68115.09961-.45069-.34863-.95948-.73047-1.51856-1.14942A81.74246,81.74246,0,0,1,27.707,36.293,81.66031,81.66031,0,0,1,19.752,26.90088c-.417-.55664-.79638-1.06348-1.14453-1.5127-1.40088-1.80908-.61426-2.96728.09961-3.68115l1.28644-1.28644L6.70172,6.88422,5.293,8.293A8.98825,8.98825,0,0,0,3,15c0,8.90088,5.48193,18.89551,16.293,29.707S40.09912,61,49,61a8.98825,8.98825,0,0,0,6.707-2.293l1.27362-1.27362L43.6889,43.897Z"/></g></svg>