<svg xmlns="http://www.w3.org/2000/svg" xmlns:xlink="http://www.w3.org/1999/xlink" viewBox="0,0,256,256" width="50px" height="50px" fill-rule="nonzero"><g fill="#dddddd" fill-rule="nonzero" stroke="none" stroke-width="1" stroke-linecap="butt" stroke-linejoin="miter" stroke-miterlimit="10" stroke-dasharray="" stroke-dashoffset="0" font-family="none" font-weight="none" font-size="none" text-anchor="none" style="mix-blend-mode: normal"><g transform="scale(5.12,5.12)"><path d="M25,0.0625c-7.67969,0 -13.9375,6.25781 -13.9375,13.9375c0,12.24609 12.64844,28.86328 13.1875,29.5625c0.17578,0.23047 0.46094,0.375 0.75,0.375c0.28906,0 0.57422,-0.14453 0.75,-0.375c0.53906,-0.71094 13.1875,-17.59766 13.1875,-29.5625c0,-7.67969 -6.25781,-13.9375 -13.9375,-13.9375zM25,9c3.3125,0 6,2.6875 6,6c0,3.3125 -2.6875,6 -6,6c-3.3125,0 -6,-2.6875 -6,-6c0,-3.3125 2.6875,-6 6,-6zM15.71875,34.0625c-7.89453,1.09375 -14.36719,3.60156 -14.6875,7.375c-0.01953,0.08203 -0.03125,0.16406 -0.03125,0.25c0,5.39063 12.36328,8.3125 24,8.3125c11.42188,0 23.55859,-2.80078 24,-8c0.01953,-0.07812 0.03125,-0.16016 0.03125,-0.25c0,-3.94922 -6.65625,-6.56641 -14.78125,-7.6875c-3.10156,5.55859 -6.24219,9.80469 -6.90625,10.6875c-0.54687,0.72656 -1.42187,1.18359 -2.34375,1.1875c-0.90625,0 -1.76562,-0.44141 -2.3125,-1.15625c-0.27734,-0.35937 -3.65625,-4.78125 -6.96875,-10.71875z"></path></g></g></svg>